<svg width="78" height="82" viewBox="0 0 78 82" fill="none" xmlns="http://www.w3.org/2000/svg">
<path d="M0 30.7598V67.4878C0 75.0587 5.67865 81.197 12.6835 81.197H65.0936C72.0984 81.197 77.7771 75.0587 77.7771 67.4878V30.7598H0Z" fill="#D2E8FF"/>
<path d="M77.7805 28.8647H0V34.4927H77.7805V28.8647Z" fill="#63B2F8"/>
<path d="M77.7805 25.4689C77.7805 18.4595 72.1019 12.7771 65.0971 12.7771H12.6835C5.67865 12.7771 0 18.4595 0 25.4689V28.8648H77.7805V25.4689Z" fill="#63B2F8"/>
<path d="M20.9595 0H19.2253C17.1576 0 15.4814 1.67728 15.4814 3.7463V15.0635C15.4814 17.1325 17.1576 18.8098 19.2253 18.8098H20.9595C23.0271 18.8098 24.7033 17.1325 24.7033 15.0635V3.7463C24.7033 1.67728 23.0271 0 20.9595 0Z" fill="#63B2F8"/>
<path d="M58.5547 0H56.8205C54.7528 0 53.0767 1.67728 53.0767 3.7463V15.0635C53.0767 17.1325 54.7528 18.8098 56.8205 18.8098H58.5547C60.6223 18.8098 62.2985 17.1325 62.2985 15.0635V3.7463C62.2985 1.67728 60.6223 0 58.5547 0Z" fill="#63B2F8"/>
<path d="M23.3711 51.4615C25.512 51.4615 27.2475 49.6715 27.2475 47.4634C27.2475 45.2553 25.512 43.4653 23.3711 43.4653C21.2302 43.4653 19.4946 45.2553 19.4946 47.4634C19.4946 49.6715 21.2302 51.4615 23.3711 51.4615Z" fill="#63B2F8"/>
<path d="M38.8901 51.4615C41.031 51.4615 42.7666 49.6715 42.7666 47.4634C42.7666 45.2553 41.031 43.4653 38.8901 43.4653C36.7492 43.4653 35.0137 45.2553 35.0137 47.4634C35.0137 49.6715 36.7492 51.4615 38.8901 51.4615Z" fill="#63B2F8"/>
<path d="M54.4096 51.4615C56.5505 51.4615 58.2861 49.6715 58.2861 47.4634C58.2861 45.2553 56.5505 43.4653 54.4096 43.4653C52.2687 43.4653 50.5332 45.2553 50.5332 47.4634C50.5332 49.6715 52.2687 51.4615 54.4096 51.4615Z" fill="#63B2F8"/>
<path d="M23.3711 69.3019C25.512 69.3019 27.2475 67.5119 27.2475 65.3038C27.2475 63.0957 25.512 61.3057 23.3711 61.3057C21.2302 61.3057 19.4946 63.0957 19.4946 65.3038C19.4946 67.5119 21.2302 69.3019 23.3711 69.3019Z" fill="#63B2F8"/>
<path d="M38.8901 69.3019C41.031 69.3019 42.7666 67.5119 42.7666 65.3038C42.7666 63.0957 41.031 61.3057 38.8901 61.3057C36.7492 61.3057 35.0137 63.0957 35.0137 65.3038C35.0137 67.5119 36.7492 69.3019 38.8901 69.3019Z" fill="#63B2F8"/>
<path d="M54.4096 69.3019C56.5505 69.3019 58.2861 67.5119 58.2861 65.3038C58.2861 63.0957 56.5505 61.3057 54.4096 61.3057C52.2687 61.3057 50.5332 63.0957 50.5332 65.3038C50.5332 67.5119 52.2687 69.3019 54.4096 69.3019Z" fill="#63B2F8"/>
</svg>
