<svg width="427" height="316" viewBox="0 0 427 316" fill="none" xmlns="http://www.w3.org/2000/svg">
<g filter="url(#filter0_d_338_3)">
<rect x="59.3696" width="307.246" height="307.246" rx="20" fill="#F4F4F4"/>
</g>
<g filter="url(#filter1_d_338_3)">
<path d="M141 128.562V196.087C141 210.006 151.44 221.292 164.319 221.292H260.675C273.553 221.292 283.994 210.006 283.994 196.087V128.562H141Z" fill="white"/>
<path d="M284 125.078H141V135.425H284V125.078Z" fill="#BBBBBB"/>
<path d="M284 118.835C284 105.948 273.56 95.501 260.681 95.501H164.319C151.44 95.501 141 105.948 141 118.835V125.078H284V118.835Z" fill="#BBBBBB"/>
<path d="M179.534 72.0103H176.346C172.545 72.0103 169.463 75.0939 169.463 78.8979V99.7046C169.463 103.508 172.545 106.592 176.346 106.592H179.534C183.336 106.592 186.417 103.508 186.417 99.7046V78.8979C186.417 75.0939 183.336 72.0103 179.534 72.0103Z" fill="#BBBBBB"/>
<path d="M248.653 72.0103H245.465C241.664 72.0103 238.582 75.0939 238.582 78.8979V99.7046C238.582 103.508 241.664 106.592 245.465 106.592H248.653C252.455 106.592 255.536 103.508 255.536 99.7046V78.8979C255.536 75.0939 252.455 72.0103 248.653 72.0103Z" fill="#BBBBBB"/>
<path d="M183.968 166.623C187.904 166.623 191.095 163.332 191.095 159.272C191.095 155.213 187.904 151.922 183.968 151.922C180.032 151.922 176.841 155.213 176.841 159.272C176.841 163.332 180.032 166.623 183.968 166.623Z" fill="#BBBBBB"/>
<path d="M212.5 166.623C216.436 166.623 219.627 163.332 219.627 159.272C219.627 155.213 216.436 151.922 212.5 151.922C208.564 151.922 205.373 155.213 205.373 159.272C205.373 163.332 208.564 166.623 212.5 166.623Z" fill="#BBBBBB"/>
<path d="M241.033 166.623C244.969 166.623 248.159 163.332 248.159 159.272C248.159 155.213 244.969 151.922 241.033 151.922C237.097 151.922 233.906 155.213 233.906 159.272C233.906 163.332 237.097 166.623 241.033 166.623Z" fill="#BBBBBB"/>
<path d="M183.968 199.422C187.904 199.422 191.095 196.131 191.095 192.072C191.095 188.012 187.904 184.721 183.968 184.721C180.032 184.721 176.841 188.012 176.841 192.072C176.841 196.131 180.032 199.422 183.968 199.422Z" fill="#BBBBBB"/>
<path d="M212.5 199.422C216.436 199.422 219.627 196.131 219.627 192.072C219.627 188.012 216.436 184.721 212.5 184.721C208.564 184.721 205.373 188.012 205.373 192.072C205.373 196.131 208.564 199.422 212.5 199.422Z" fill="#BBBBBB"/>
<path d="M241.033 199.422C244.969 199.422 248.159 196.131 248.159 192.072C248.159 188.012 244.969 184.721 241.033 184.721C237.097 184.721 233.906 188.012 233.906 192.072C233.906 196.131 237.097 199.422 241.033 199.422Z" fill="#BBBBBB"/>
</g>
<g filter="url(#filter2_d_338_3)">
<path d="M422.024 30.5139C410.068 28.5186 402.454 32.7309 400.675 36.3334C404.233 45.7554 412.417 63.9343 412.417 51.2977C412.417 38.6611 418.821 32.1766 422.024 30.5139Z" fill="#FFF381"/>
<rect x="234.153" y="30" width="179.331" height="59.777" rx="20" fill="#FFF381"/>
</g>
<g filter="url(#filter3_d_338_3)">
<path d="M3.99656 208.737C16.0675 206.742 23.7555 210.954 25.5518 214.557C21.9592 223.979 13.6964 242.157 13.6964 229.521C13.6964 216.884 7.22984 210.4 3.99656 208.737Z" fill="#4BA6F7"/>
<rect width="199.913" height="60" rx="20" transform="matrix(-1 -8.74228e-08 -8.74228e-08 1 213 208)" fill="#4BA6F7"/>
</g>
<path d="M277.52 47.9321V62.6157H274.484V56.5728H270.273V54.0845H274.484V47.9321H277.52ZM269.152 63.2446C274.402 63.2446 277.602 64.9673 277.602 67.9478C277.602 70.9282 274.402 72.6509 269.152 72.6509C263.93 72.6509 260.73 70.9282 260.758 67.9478C260.73 64.9673 263.93 63.2446 269.152 63.2446ZM269.152 65.5688C265.707 65.5688 263.766 66.3892 263.766 67.9478C263.766 69.479 265.707 70.2993 269.152 70.2993C272.598 70.2993 274.566 69.479 274.566 67.9478C274.566 66.3892 272.598 65.5688 269.152 65.5688ZM265.898 52.1704C265.898 55.1782 267.895 58.2134 271.723 59.4985L270.191 61.9048C267.443 60.9751 265.488 59.0884 264.422 56.7642C263.328 59.4028 261.264 61.5083 258.324 62.561L256.738 60.1548C260.703 58.7876 262.809 55.4517 262.809 52.1978V52.0063H257.668V49.5454H271.012V52.0063H265.898V52.1704ZM288.648 53.4829C288.648 56.1079 290.234 58.6782 293.352 59.7446L291.984 62.0415C289.715 61.2075 288.156 59.6626 287.281 57.7485C286.406 59.8403 284.834 61.5356 282.496 62.4517L281.074 60.2095C284.191 58.979 285.75 56.2993 285.777 53.4829V53.2915H281.703V50.9126H285.777V48.2056H288.648V50.9126H292.668V53.2915H288.648V53.4829ZM302.156 47.9595V63.0806H299.258V56.7642H296.879V62.9712H294.008V48.3696H296.879V54.3032H299.258V47.9595H302.156ZM302.156 64.2017V72.6509H299.121V66.6626H285.23V64.2017H302.156ZM331.359 47.9321V52.9087H334.805V55.4243H331.359V60.3462H328.324V47.9321H331.359ZM331.359 61.4126V67.8931H318.234V69.9438H332.125V72.3501H315.227V65.6782H328.324V63.7642H315.199V61.4126H331.359ZM318.699 48.7524C322.473 48.7524 325.234 51.022 325.262 54.3032C325.234 57.5298 322.473 59.8267 318.699 59.8267C314.926 59.8267 312.109 57.5298 312.137 54.3032C312.109 51.022 314.926 48.7524 318.699 48.7524ZM318.699 51.2134C316.621 51.2134 315.09 52.4165 315.117 54.3032C315.09 56.1626 316.621 57.4204 318.699 57.4204C320.777 57.4204 322.309 56.1626 322.309 54.3032C322.309 52.4165 320.777 51.2134 318.699 51.2134ZM356.762 47.9321V72.6782H353.727V62.5337H349.215V60.0454H353.727V55.8071H349.297V53.3188H353.727V47.9321H356.762ZM347.902 50.0649V59.3071H339.973V64.5571C343.24 64.5298 346.084 64.3931 349.406 63.9009L349.652 66.3892C345.852 66.9907 342.707 67.0728 338.879 67.0728H336.965V56.9282H344.922V52.4985H336.883V50.0649H347.902ZM369.805 52.1157C369.805 54.1118 371.883 55.9712 375.602 56.5728L374.398 58.897C371.514 58.3774 369.422 57.0923 368.301 55.3696C367.18 57.2427 365.033 58.6372 361.957 59.2251L360.727 56.8735C364.609 56.2173 366.688 54.2485 366.688 52.1157V52.0063H361.684V49.6001H374.836V52.0063H369.805V52.1157ZM381.125 47.9595V72.6235H378.035V67.1001H372.785V64.7759H378.035V47.9595H381.125ZM360.152 60.8384C364.719 60.8384 370.926 60.7837 376.285 60.0454L376.477 62.2876C374.234 62.6841 371.91 62.9438 369.641 63.0806V71.8853H366.578V63.2446C364.418 63.3267 362.354 63.3403 360.535 63.354L360.152 60.8384ZM389.547 50.4204L389.246 64.3931H386.156L385.828 50.4204H389.547ZM387.715 70.436C386.539 70.436 385.582 69.479 385.582 68.3032C385.582 67.1548 386.539 66.1978 387.715 66.1978C388.836 66.1978 389.82 67.1548 389.82 68.3032C389.82 69.479 388.836 70.436 387.715 70.436Z" fill="#00316B"/>
<path d="M55.0391 225.715V250.434H52.1133V237.938H49.3789V249.176H46.5352V226.18H49.3789V235.449H52.1133V225.715H55.0391ZM37.9492 228.559V241.602C40.082 241.561 42.4199 241.383 45.0039 240.863L45.3047 243.516C41.9688 244.117 39.1523 244.281 36.5273 244.281H34.8867V228.559H37.9492ZM77.3789 225.715V235.367H81.043V237.91H77.3789V250.379H74.3438V225.715H77.3789ZM70.8438 228.285C70.8438 235.559 67.8359 241.93 59.6055 245.977L57.8828 243.625C63.8984 240.631 67.1523 236.42 67.7812 230.801H59.2227V228.285H70.8438ZM108.359 225.715V230.691H111.805V233.207H108.359V238.129H105.324V225.715H108.359ZM108.359 239.195V245.676H95.2344V247.727H109.125V250.133H92.2266V243.461H105.324V241.547H92.1992V239.195H108.359ZM95.6992 226.535C99.4727 226.535 102.234 228.805 102.262 232.086C102.234 235.312 99.4727 237.609 95.6992 237.609C91.9258 237.609 89.1094 235.312 89.1367 232.086C89.1094 228.805 91.9258 226.535 95.6992 226.535ZM95.6992 228.996C93.6211 228.996 92.0898 230.199 92.1172 232.086C92.0898 233.945 93.6211 235.203 95.6992 235.203C97.7773 235.203 99.3086 233.945 99.3086 232.086C99.3086 230.199 97.7773 228.996 95.6992 228.996ZM133.762 225.715V250.461H130.727V240.316H126.215V237.828H130.727V233.59H126.297V231.102H130.727V225.715H133.762ZM124.902 227.848V237.09H116.973V242.34C120.24 242.312 123.084 242.176 126.406 241.684L126.652 244.172C122.852 244.773 119.707 244.855 115.879 244.855H113.965V234.711H121.922V230.281H113.883V227.848H124.902ZM159.793 235.723V238.129H150.004V240.016H156.977V246.086H142.922V247.891H157.66V250.215H139.941V243.953H153.996V242.285H139.914V240.016H146.996V238.129H137.262V235.723H159.793ZM157.77 226.48V228.832H150.441C151.111 230.65 154.133 232.223 158.727 232.551L157.77 234.848C153.34 234.492 149.99 233.002 148.5 230.801C147.01 232.988 143.701 234.492 139.312 234.848L138.355 232.551C142.908 232.209 145.902 230.664 146.586 228.832H139.312V226.48H157.77ZM182.789 225.715V250.434H179.891V225.715H182.789ZM177.539 226.316V249.258H174.668V237.883H170.266C168.816 240.727 166.492 243.188 162.992 245.211L161.27 243.051C166.396 240.029 168.734 236.16 169.199 231.184H162.527V228.723H172.207C172.207 231.115 171.92 233.357 171.25 235.449H174.668V226.316H177.539ZM190.746 228.203L190.445 242.176H187.355L187.027 228.203H190.746ZM188.914 248.219C187.738 248.219 186.781 247.262 186.781 246.086C186.781 244.938 187.738 243.98 188.914 243.98C190.035 243.98 191.02 244.938 191.02 246.086C191.02 247.262 190.035 248.219 188.914 248.219Z" fill="white"/>
<defs>
<filter id="filter0_d_338_3" x="55.3696" y="0" width="315.247" height="315.247" filterUnits="userSpaceOnUse" color-interpolation-filters="sRGB">
<feFlood flood-opacity="0" result="BackgroundImageFix"/>
<feColorMatrix in="SourceAlpha" type="matrix" values="0 0 0 0 0 0 0 0 0 0 0 0 0 0 0 0 0 0 127 0" result="hardAlpha"/>
<feOffset dy="4"/>
<feGaussianBlur stdDeviation="2"/>
<feComposite in2="hardAlpha" operator="out"/>
<feColorMatrix type="matrix" values="0 0 0 0 0 0 0 0 0 0 0 0 0 0 0 0 0 0 0.25 0"/>
<feBlend mode="normal" in2="BackgroundImageFix" result="effect1_dropShadow_338_3"/>
<feBlend mode="normal" in="SourceGraphic" in2="effect1_dropShadow_338_3" result="shape"/>
</filter>
<filter id="filter1_d_338_3" x="137" y="72.0103" width="151" height="157.281" filterUnits="userSpaceOnUse" color-interpolation-filters="sRGB">
<feFlood flood-opacity="0" result="BackgroundImageFix"/>
<feColorMatrix in="SourceAlpha" type="matrix" values="0 0 0 0 0 0 0 0 0 0 0 0 0 0 0 0 0 0 127 0" result="hardAlpha"/>
<feOffset dy="4"/>
<feGaussianBlur stdDeviation="2"/>
<feComposite in2="hardAlpha" operator="out"/>
<feColorMatrix type="matrix" values="0 0 0 0 0 0 0 0 0 0 0 0 0 0 0 0 0 0 0.25 0"/>
<feBlend mode="normal" in2="BackgroundImageFix" result="effect1_dropShadow_338_3"/>
<feBlend mode="normal" in="SourceGraphic" in2="effect1_dropShadow_338_3" result="shape"/>
</filter>
<filter id="filter2_d_338_3" x="230.153" y="30" width="195.871" height="67.7771" filterUnits="userSpaceOnUse" color-interpolation-filters="sRGB">
<feFlood flood-opacity="0" result="BackgroundImageFix"/>
<feColorMatrix in="SourceAlpha" type="matrix" values="0 0 0 0 0 0 0 0 0 0 0 0 0 0 0 0 0 0 127 0" result="hardAlpha"/>
<feOffset dy="4"/>
<feGaussianBlur stdDeviation="2"/>
<feComposite in2="hardAlpha" operator="out"/>
<feColorMatrix type="matrix" values="0 0 0 0 0 0 0 0 0 0 0 0 0 0 0 0 0 0 0.25 0"/>
<feBlend mode="normal" in2="BackgroundImageFix" result="effect1_dropShadow_338_3"/>
<feBlend mode="normal" in="SourceGraphic" in2="effect1_dropShadow_338_3" result="shape"/>
</filter>
<filter id="filter3_d_338_3" x="-0.00341797" y="208" width="217.003" height="68" filterUnits="userSpaceOnUse" color-interpolation-filters="sRGB">
<feFlood flood-opacity="0" result="BackgroundImageFix"/>
<feColorMatrix in="SourceAlpha" type="matrix" values="0 0 0 0 0 0 0 0 0 0 0 0 0 0 0 0 0 0 127 0" result="hardAlpha"/>
<feOffset dy="4"/>
<feGaussianBlur stdDeviation="2"/>
<feComposite in2="hardAlpha" operator="out"/>
<feColorMatrix type="matrix" values="0 0 0 0 0 0 0 0 0 0 0 0 0 0 0 0 0 0 0.25 0"/>
<feBlend mode="normal" in2="BackgroundImageFix" result="effect1_dropShadow_338_3"/>
<feBlend mode="normal" in="SourceGraphic" in2="effect1_dropShadow_338_3" result="shape"/>
</filter>
</defs>
</svg>
