<svg width="94" height="62" viewBox="0 0 94 62" fill="none" xmlns="http://www.w3.org/2000/svg">
<path d="M65.9027 28.4693C73.6888 28.4693 80.0007 22.1532 80.0007 14.362C80.0007 6.57071 73.6888 0.254639 65.9027 0.254639C58.1166 0.254639 51.8047 6.57071 51.8047 14.362C51.8047 22.1532 58.1166 28.4693 65.9027 28.4693Z" fill="#D2E8FF"/>
<path d="M27.975 28.4693C35.7611 28.4693 42.073 22.1532 42.073 14.362C42.073 6.57071 35.7611 0.254639 27.975 0.254639C20.1889 0.254639 13.877 6.57071 13.877 14.362C13.877 22.1532 20.1889 28.4693 27.975 28.4693Z" fill="#63B2F8"/>
<path d="M69.4461 33.1685H62.3597C56.5111 33.1685 51.1452 35.5197 46.939 39.4395C52.4374 44.5639 55.95 52.3661 55.95 61.1109H93.8779C93.8779 45.68 82.9389 33.1685 69.4461 33.1685Z" fill="#D2E8FF"/>
<path d="M46.939 39.4395C42.7327 35.5197 37.3669 33.1685 31.5182 33.1685H24.4318C10.9391 33.1685 0 45.68 0 61.1109H37.9279C37.9279 52.3661 41.4405 44.5639 46.939 39.4395Z" fill="#63B2F8"/>
<path d="M46.9388 39.4395C41.4403 44.5638 37.9277 52.3661 37.9277 61.1108H55.9532C55.9532 52.3661 52.4406 44.5638 46.9422 39.4395H46.9388Z" fill="#97D3FF"/>
</svg>
