<svg width="122" height="102" viewBox="0 0 122 102" fill="none" xmlns="http://www.w3.org/2000/svg">
<g clip-path="url(#clip0_16_89)">
<path d="M92.8079 5.39136H29.1921C16.0476 5.39136 5.39136 16.3462 5.39136 29.8598V56.0306C5.39136 69.5443 16.0476 80.4991 29.1921 80.4991H30.2247C31.7426 80.4991 33.2086 81.0652 34.3512 82.0957L48.5076 94.8525C51.222 97.2973 55.4728 95.317 55.4728 91.6073V86.9334C55.4728 83.3793 58.2763 80.4991 61.733 80.4991H92.8079C105.952 80.4991 116.609 69.5443 116.609 56.0306V29.8598C116.609 16.3462 105.952 5.39136 92.8079 5.39136Z" fill="white"/>
<path d="M37.4326 45.7172V47.7037H17.7313V45.7172H26.4384V43.6042H19.1621V34.1963H36.1158V36.0833H21.4493V37.9702H35.7923V39.7805H21.4493V41.7172H36.3004V43.6042H28.7006V45.7172H37.4305H37.4326ZM18.9319 49.6404H36.0474V55.4506H33.7374V51.6518H18.9319V49.6404Z" fill="#4BA6F7"/>
<path d="M59.7526 45.5237V47.5102H40.0514V45.5237H48.7584V43.4107H41.4822V34.0028H58.4359V35.8898H43.7694V37.7768H58.1124V39.587H43.7694V41.5237H58.6204V43.4107H51.0207V45.5237H59.7506H59.7526ZM41.252 49.447H58.3675V55.2572H56.0575V51.4583H41.252V49.447Z" fill="#4BA6F7"/>
<path d="M63.1699 34.2807H74.9023V45.8763H63.1699V34.2807ZM63.9558 47.9893H66.2658V52.6922H81.2102V54.9565H63.9558V47.9893ZM72.64 43.7135V36.4435H65.4343V43.7135H72.64ZM78.3922 33.752H80.6794V49.7H78.3922V33.752Z" fill="#00316B"/>
<path d="M89.9401 45.7498H84.4886V43.6865H92.642C95.7213 43.6865 97.8779 43.4025 99.1096 42.8322V44.8955C97.9401 45.4657 95.7607 45.7498 92.5736 45.7498H92.2273V49.5984H89.9401V45.7498ZM87.2714 41.0717C86.2014 40.3335 85.6664 39.303 85.6664 37.9779C85.6664 36.6529 86.2014 35.6265 87.2714 34.8966C88.3414 34.1667 89.7535 33.8017 91.5098 33.8017C93.2662 33.8017 94.6783 34.1667 95.7483 34.8966C96.8182 35.6265 97.3532 36.6529 97.3532 37.9779C97.3532 39.303 96.8182 40.3335 95.7483 41.0717C94.6783 41.8099 93.2662 42.179 91.5098 42.179C89.7535 42.179 88.3414 41.8099 87.2714 41.0717ZM103.568 52.8435V54.9565H86.3134V48.4413H88.6006V52.8435H103.568ZM88.9013 36.3294C88.2398 36.7068 87.908 37.2563 87.908 37.9779C87.908 38.6996 88.2398 39.2532 88.9013 39.6389C89.5627 40.0246 90.4336 40.2174 91.5119 40.2174C92.5902 40.2174 93.459 40.0246 94.1226 39.6389C94.784 39.2532 95.1158 38.6996 95.1158 37.9779C95.1158 37.2563 94.784 36.7068 94.1226 36.3294C93.4611 35.952 92.5902 35.7633 91.5119 35.7633C90.4336 35.7633 89.5648 35.952 88.9013 36.3294ZM100.773 47.2345V33.752H103.06V50.5792H100.773V49.2459H94.7903V47.2345H100.773Z" fill="#00316B"/>
<path d="M27.6514 31.1081C28.7657 31.1081 29.669 30.2048 29.669 29.0905C29.669 27.9762 28.7657 27.0729 27.6514 27.0729C26.5371 27.0729 25.6338 27.9762 25.6338 29.0905C25.6338 30.2048 26.5371 31.1081 27.6514 31.1081Z" fill="#00316B"/>
<path d="M49.9218 31.1081C51.0361 31.1081 51.9394 30.2048 51.9394 29.0905C51.9394 27.9762 51.0361 27.0729 49.9218 27.0729C48.8075 27.0729 47.9042 27.9762 47.9042 29.0905C47.9042 30.2048 48.8075 31.1081 49.9218 31.1081Z" fill="#00316B"/>
<path d="M92.8079 5.39135C105.952 5.39135 116.609 16.3462 116.609 29.8598V56.0306C116.609 69.5443 105.952 80.4991 92.8079 80.4991H61.733C58.2763 80.4991 55.4749 83.3793 55.4749 86.9334V91.6073C55.4749 94.1869 53.4179 95.9308 51.251 95.9308C50.3034 95.9308 49.335 95.5969 48.5076 94.8525L34.3512 82.0957C33.2107 81.0672 31.7426 80.4991 30.2247 80.4991H29.1921C16.0476 80.4991 5.39135 69.5443 5.39135 56.0306V29.8598C5.39135 16.3462 16.0476 5.39135 29.1921 5.39135H92.8079ZM92.8079 0H29.1921C25.2357 0 21.3954 0.798334 17.7769 2.37012C14.2954 3.88384 11.1746 6.04661 8.49759 8.79827C3.01708 14.4322 0 21.9117 0 29.8598V56.0306C0 63.9787 3.01708 71.4582 8.49759 77.0921C11.1746 79.8438 14.2974 82.0066 17.7769 83.5203C21.3933 85.0921 25.2336 85.8904 29.1921 85.8904H30.2247C30.4072 85.8904 30.5918 85.9651 30.7411 86.0998L44.8975 98.8566C46.6621 100.447 48.9182 101.322 51.2489 101.322C53.7061 101.322 56.1364 100.335 57.9197 98.614C59.817 96.7789 60.8642 94.2905 60.8642 91.6073V86.9334C60.8642 86.3673 61.2623 85.8904 61.733 85.8904H92.8079C96.7643 85.8904 100.605 85.0921 104.223 83.5203C107.705 82.0066 110.825 79.8438 113.502 77.0921C118.983 71.4582 122 63.9787 122 56.0306V29.8598C122 21.9117 118.983 14.4322 113.502 8.79827C110.825 6.04661 107.703 3.88384 104.223 2.37012C100.607 0.798334 96.7664 0 92.8079 0Z" fill="#4BA6F7"/>
</g>
<defs>
<clipPath id="clip0_16_89">
<rect width="122" height="101.322" fill="white"/>
</clipPath>
</defs>
</svg>
