<svg width="30" height="30" viewBox="0 0 30 30" fill="none" xmlns="http://www.w3.org/2000/svg">
<path d="M24.5833 0C27.5748 0 30 2.42512 30 5.41667V24.5833C30 27.5748 27.5748 30 24.5833 30H5.41667C2.42512 30 0 27.5748 0 24.5833V5.41667C0 2.42512 2.42512 0 5.41667 0H24.5833ZM27.5 9.16667H2.5V24.5833C2.5 26.1942 3.80583 27.5 5.41667 27.5H24.5833C26.1942 27.5 27.5 26.1942 27.5 24.5833V9.16667ZM7.91667 19.1667C9.06727 19.1667 10 20.0993 10 21.25C10 22.4007 9.06727 23.3333 7.91667 23.3333C6.76607 23.3333 5.83333 22.4007 5.83333 21.25C5.83333 20.0993 6.76607 19.1667 7.91667 19.1667ZM15 19.1667C16.1507 19.1667 17.0833 20.0993 17.0833 21.25C17.0833 22.4007 16.1507 23.3333 15 23.3333C13.8493 23.3333 12.9167 22.4007 12.9167 21.25C12.9167 20.0993 13.8493 19.1667 15 19.1667ZM7.91667 12.5C9.06727 12.5 10 13.4327 10 14.5833C10 15.734 9.06727 16.6667 7.91667 16.6667C6.76607 16.6667 5.83333 15.734 5.83333 14.5833C5.83333 13.4327 6.76607 12.5 7.91667 12.5ZM15 12.5C16.1507 12.5 17.0833 13.4327 17.0833 14.5833C17.0833 15.734 16.1507 16.6667 15 16.6667C13.8493 16.6667 12.9167 15.734 12.9167 14.5833C12.9167 13.4327 13.8493 12.5 15 12.5ZM22.0833 12.5C23.234 12.5 24.1667 13.4327 24.1667 14.5833C24.1667 15.734 23.234 16.6667 22.0833 16.6667C20.9327 16.6667 20 15.734 20 14.5833C20 13.4327 20.9327 12.5 22.0833 12.5ZM24.5833 2.5H5.41667C3.80583 2.5 2.5 3.80583 2.5 5.41667V6.66667H27.5V5.41667C27.5 3.80583 26.1942 2.5 24.5833 2.5Z" fill="#4BA6F7"/>
</svg>
