<svg width="20" height="29" viewBox="0 0 20 29" fill="none" xmlns="http://www.w3.org/2000/svg">
<path d="M18.9286 13.05C19.471 13.05 19.9193 13.4592 19.9903 13.9899L20 14.1375V14.8625C20 20.0236 16.0643 24.2518 11.0729 24.6235L11.0714 27.9125C11.0714 28.5131 10.5917 29 10 29C9.45757 29 9.00929 28.5908 8.93829 28.0601L8.92857 27.9125V24.6236C4.04747 24.2608 0.175471 20.2101 0.0057997 15.2051L0 14.8625V14.1375C0 13.5369 0.4797 13.05 1.07143 13.05C1.61386 13.05 2.06213 13.4592 2.13307 13.9899L2.14286 14.1375V14.8625C2.14286 18.9617 5.33493 22.304 9.33371 22.4686L9.64286 22.475H10.3571C14.3957 22.475 17.6887 19.2351 17.8509 15.1763L17.8571 14.8625V14.1375C17.8571 13.5369 18.3369 13.05 18.9286 13.05ZM10 0C13.1559 0 15.7143 2.59675 15.7143 5.8V14.5C15.7143 17.7032 13.1559 20.3 10 20.3C6.84409 20.3 4.28571 17.7032 4.28571 14.5V5.8C4.28571 2.59675 6.84409 0 10 0ZM10 2.175C8.02757 2.175 6.42857 3.79797 6.42857 5.8V14.5C6.42857 16.502 8.02757 18.125 10 18.125C11.9724 18.125 13.5714 16.502 13.5714 14.5V5.8C13.5714 3.79797 11.9724 2.175 10 2.175Z" fill="#8A8A8A"/>
</svg>
