<svg width="31" height="31" viewBox="0 0 31 31" fill="none" xmlns="http://www.w3.org/2000/svg">
<path d="M3.34375 11.7031C3.34375 7.08638 7.08638 3.34375 11.7031 3.34375C16.3198 3.34375 20.0625 7.08638 20.0625 11.7031C20.0625 16.3198 16.3198 20.0625 11.7031 20.0625C7.08638 20.0625 3.34375 16.3198 3.34375 11.7031ZM11.7031 0C5.23968 0 0 5.23968 0 11.7031C0 18.1666 5.23968 23.4063 11.7031 23.4063C14.3318 23.4063 16.7582 22.5396 18.712 21.0763L27.2397 29.6041C27.8926 30.2569 28.9512 30.2569 29.6041 29.6041C30.2569 28.9512 30.2569 27.8926 29.6041 27.2397L21.0763 18.712C22.5396 16.7582 23.4063 14.3318 23.4063 11.7031C23.4063 5.23968 18.1666 0 11.7031 0Z" fill="#4BA6F7"/>
</svg>
