<svg width="28" height="27" viewBox="0 0 28 27" fill="none" xmlns="http://www.w3.org/2000/svg">
<path d="M4.94972 13.5L0.0764346 1.41806C-0.262728 0.577172 0.587713 -0.226992 1.42899 0.0588545L1.56158 0.1132L27.4047 12.5713C28.1488 12.9301 28.1953 13.9123 27.5442 14.3489L27.4047 14.4286L1.56158 26.8868C0.724581 27.2903 -0.184682 26.5484 0.0326017 25.7142L0.0764346 25.5819L4.94972 13.5ZM3.09545 3.17407L6.84126 12.461L16.3567 12.4619C16.9019 12.4619 17.3524 12.8523 17.4236 13.3591L17.4335 13.5C17.4335 14.0256 17.0284 14.46 16.5027 14.5287L16.3567 14.5382L6.84126 14.5374L3.09545 23.826L24.5154 13.5L3.09545 3.17407Z" fill="#8A8A8A"/>
</svg>
