<svg width="31" height="26" viewBox="0 0 31 26" fill="none" xmlns="http://www.w3.org/2000/svg">
<path d="M20.1839 2.37775C19.6795 1.83381 19.6795 0.951893 20.1839 0.407954C20.6883 -0.135985 21.5061 -0.135985 22.0106 0.407954L30.6217 9.69373C31.1261 10.2377 31.1261 11.1195 30.6217 11.6634L22.0106 20.9491C21.5061 21.4931 20.6883 21.4931 20.1839 20.9491C19.6795 20.4052 19.6795 19.5234 20.1839 18.9794L26.59 12.0714H13.3472C7.40246 12.0714 2.58333 17.2681 2.58333 23.6786V24.6071C2.58333 25.3764 2.00501 26 1.29167 26C0.578321 26 0 25.3764 0 24.6071V23.6786C0 15.7296 5.97577 9.28571 13.3472 9.28571H26.59L20.1839 2.37775Z" fill="#4BA6F7"/>
</svg>
