<svg width="33" height="27" viewBox="0 0 33 27" fill="none" xmlns="http://www.w3.org/2000/svg">
<path d="M11.5139 2.4692C12.0509 1.90434 12.0509 0.988504 11.5139 0.423645C10.977 -0.141215 10.1064 -0.141215 9.56939 0.423645L0.402724 10.0666C-0.134241 10.6314 -0.134241 11.5471 0.402724 12.112L9.56939 21.7549C10.1064 22.3197 10.977 22.3197 11.5139 21.7549C12.0509 21.19 12.0509 20.2743 11.5139 19.7094L4.69454 12.5357H18.7917C25.12 12.5357 30.25 17.9322 30.25 24.5893V25.5536C30.25 26.3524 30.8656 27 31.625 27C32.3844 27 33 26.3524 33 25.5536V24.5893C33 16.3346 26.6387 9.64285 18.7917 9.64285H4.69454L11.5139 2.4692Z" fill="#4BA6F7"/>
</svg>
