<svg width="142" height="45" viewBox="0 0 142 45" fill="none" xmlns="http://www.w3.org/2000/svg">
<g clip-path="url(#clip0_196_160)">
<path d="M52.4268 31.9935C52.4268 34.6379 51.9866 36.5376 51.1095 37.6926C50.2324 38.8476 48.8151 39.4268 46.8576 39.4268C45.1368 39.4268 43.9396 38.9006 43.266 37.8448C42.589 36.7891 42.2522 35.1906 42.2522 33.0493V18.3847H35.0657V34.3566C35.0657 35.965 35.2091 37.4278 35.4959 38.7516C35.7827 40.0755 36.2795 41.1974 36.9899 42.1175C37.6968 43.0375 38.6673 43.7491 39.9012 44.2521C41.1317 44.7552 42.7091 45.0067 44.6333 45.0067C46.1506 45.0067 47.6346 44.6724 49.0853 44.0006C50.5359 43.3321 51.7164 42.2432 52.6268 40.7374H52.7802V44.3547H59.6133V18.3813H52.4268V31.9935Z" fill="#4BA6F7"/>
<path d="M87.6991 20.6152C86.9921 19.6951 86.0217 18.9736 84.7878 18.454C83.5573 17.9344 81.9799 17.6763 80.0557 17.6763C78.5384 17.6763 77.051 18.0205 75.6037 18.7055C74.1531 19.3939 72.9725 20.4894 72.0621 21.9952H71.9087V18.3779H65.0757V44.3447H72.2622V30.7325C72.2622 28.0881 72.6991 26.1884 73.5795 25.0334C74.4565 23.8784 75.8738 23.2992 77.8314 23.2992C79.5521 23.2992 80.7493 23.8254 81.423 24.8812C82.0966 25.9369 82.4368 27.5354 82.4368 29.6767V44.3413H89.6233V28.3694C89.6233 26.761 89.4799 25.2982 89.1931 23.9744C88.9063 22.6505 88.4094 21.5319 87.6991 20.6085V20.6152Z" fill="#4BA6F7"/>
<path d="M142 14.6878V9.91542H136.738V2.13135H129.551V9.91542H125.199V14.6878H129.551V38.3676C129.551 39.6749 129.771 40.7274 130.208 41.5316C130.645 42.3358 131.245 42.9547 132.006 43.3916C132.766 43.8284 133.643 44.1197 134.637 44.2719C135.631 44.4241 136.688 44.4969 137.798 44.4969C138.505 44.4969 139.232 44.4804 139.976 44.4473C140.716 44.4142 141.393 44.348 142 44.2454V38.7218C141.663 38.788 141.306 38.8409 140.936 38.874C140.563 38.9071 140.176 38.9237 139.772 38.9237C138.559 38.9237 137.748 38.7218 137.345 38.3213C136.941 37.9209 136.738 37.1166 136.738 35.912V14.6878H142Z" fill="#4BA6F7"/>
<path d="M113.407 21.5452H113.307C112.497 20.2744 111.393 19.3113 109.992 18.656C108.592 18.004 107.115 17.6764 105.564 17.6764C103.64 17.6764 101.952 18.0537 100.505 18.8049C99.0543 19.5595 97.8471 20.5557 96.8866 21.7935C95.9262 23.0312 95.1992 24.4643 94.709 26.0893C94.2188 27.7142 93.9753 29.3955 93.9753 31.1363C93.9753 32.8772 94.2188 34.6842 94.709 36.3588C95.1959 38.0334 95.9229 39.5161 96.8866 40.8035C97.8471 42.0943 99.071 43.1136 100.555 43.8682C102.039 44.6228 103.76 44.9967 105.717 44.9967C107.438 44.9967 108.982 44.6856 110.346 44.0667C111.713 43.4479 112.817 42.4351 113.661 41.0286H113.761V44.3448H120.594V13.0066H113.407V21.5485V21.5452ZM113.357 34.4029C113.154 35.409 112.817 36.3025 112.347 37.0902C111.873 37.8779 111.24 38.5067 110.449 38.9734C109.656 39.4433 108.669 39.675 107.488 39.675C106.374 39.675 105.42 39.4334 104.63 38.9469C103.836 38.4604 103.179 37.8249 102.656 37.0373C102.132 36.2496 101.752 35.356 101.519 34.3499C101.282 33.3438 101.165 32.341 101.165 31.3382C101.165 30.2659 101.275 29.2366 101.495 28.2504C101.715 27.2641 102.069 26.3838 102.559 25.6127C103.049 24.8416 103.7 24.2227 104.507 23.756C105.317 23.2861 106.311 23.0544 107.491 23.0544C108.672 23.0544 109.649 23.2894 110.426 23.756C111.203 24.226 111.833 24.8349 112.324 25.5895C112.81 26.3441 113.157 27.2145 113.361 28.2008C113.564 29.1903 113.664 30.2196 113.664 31.2886C113.664 32.3576 113.564 33.3967 113.361 34.4029H113.357Z" fill="#4BA6F7"/>
<path d="M117.005 1.86987C114.931 1.86987 113.25 3.53789 113.25 5.59643C113.25 7.65497 114.931 9.32299 117.005 9.32299C119.08 9.32299 120.761 7.65497 120.761 5.59643C120.761 3.53789 119.08 1.86987 117.005 1.86987Z" fill="#4BA6F7"/>
<path d="M15 7.8966L30.3135 6.74156L29.8933 1.26756L29.7966 0L12.9958 1.26756L6.37618 1.7673L5.81593 1.80702L5.39907 1.8368L5.81593 7.5855L6.5029 17.448L0 17.9345L0.503558 24.5668L6.96311 24.0836L8.27369 42.9381L8.31037 43.4213L16.1472 42.8554L14.85 23.4945L28.6961 22.4586L28.1926 15.8263L14.3731 16.8589L14.3231 16.1837L13.7628 8.50224L13.7261 7.99257L13.7628 7.98926L15 7.8966Z" fill="#4BA6F7"/>
</g>
<defs>
<clipPath id="clip0_196_160">
<rect width="142" height="45" fill="white"/>
</clipPath>
</defs>
</svg>
